<?xml version="1.0" encoding="UTF-8" standalone="no"?>
<!DOCTYPE svg PUBLIC "-//W3C//DTD SVG 1.1//EN" "http://www.w3.org/Graphics/SVG/1.1/DTD/svg11.dtd">
<svg width="100%" height="100%" viewBox="0 0 117 24" version="1.1" xmlns="http://www.w3.org/2000/svg" xmlns:xlink="http://www.w3.org/1999/xlink" xml:space="preserve" xmlns:serif="http://www.serif.com/" style="fill-rule:evenodd;clip-rule:evenodd;stroke-linejoin:round;stroke-miterlimit:2;">
    <g transform="matrix(1,0,0,1,-0.499878,0)">
        <path d="M7.836,14.95L7.836,21.025C7.836,21.258 7.743,21.482 7.579,21.646C7.414,21.811 7.191,21.903 6.958,21.903C6.725,21.903 6.502,21.811 6.337,21.646C6.172,21.482 6.08,21.258 6.08,21.025L6.08,14.958C6.324,15.137 6.617,15.236 6.92,15.244C7.25,15.253 7.573,15.149 7.836,14.95ZM15.315,13.193C15.092,13.193 14.878,13.282 14.721,13.439C14.563,13.597 14.475,13.811 14.475,14.034L14.475,15.092C14.475,15.325 14.567,15.549 14.732,15.713C14.896,15.878 15.12,15.971 15.353,15.971C15.586,15.971 15.809,15.878 15.974,15.713C16.138,15.549 16.231,15.325 16.231,15.092L16.231,14.076C16.237,13.955 16.218,13.835 16.174,13.722C16.13,13.61 16.062,13.509 15.975,13.425C15.888,13.341 15.784,13.277 15.67,13.237C15.556,13.197 15.435,13.182 15.315,13.193ZM4.172,17.252C3.87,17.243 3.577,17.144 3.332,16.966L3.332,23.059C3.332,23.293 3.425,23.517 3.59,23.683C3.756,23.848 3.98,23.941 4.214,23.941C4.448,23.941 4.673,23.848 4.838,23.683C5.004,23.517 5.097,23.293 5.097,23.059L5.097,17.008C4.822,17.186 4.498,17.271 4.172,17.252ZM12.576,11.37C12.462,11.364 12.348,11.382 12.241,11.421C12.134,11.461 12.037,11.522 11.954,11.601C11.871,11.679 11.806,11.774 11.761,11.878C11.716,11.983 11.693,12.096 11.693,12.21L11.693,16.891C11.693,17.125 11.786,17.349 11.952,17.515C12.117,17.68 12.342,17.773 12.576,17.773C12.81,17.773 13.034,17.68 13.2,17.515C13.365,17.349 13.458,17.125 13.458,16.891L13.458,12.269C13.464,12.148 13.445,12.026 13.4,11.914C13.356,11.801 13.287,11.698 13.199,11.615C13.111,11.531 13.006,11.467 12.891,11.428C12.776,11.388 12.654,11.374 12.534,11.387L12.576,11.37ZM9.786,13.168C9.469,13.166 9.161,13.066 8.903,12.882L8.903,18.992C8.903,19.226 8.996,19.45 9.162,19.616C9.327,19.781 9.552,19.874 9.786,19.874C10.02,19.874 10.244,19.781 10.41,19.616C10.575,19.45 10.668,19.226 10.668,18.992L10.668,12.891C10.401,13.089 10.076,13.193 9.744,13.185L9.786,13.168ZM2.265,17.849L2.265,0.782C2.262,0.573 2.178,0.375 2.03,0.228C1.882,0.082 1.683,0 1.475,0L1.29,0C1.082,0 0.882,0.082 0.734,0.228C0.586,0.375 0.502,0.573 0.5,0.782L0.5,17.849C0.5,18.058 0.583,18.259 0.731,18.407C0.879,18.555 1.08,18.639 1.29,18.639L1.475,18.639C1.684,18.639 1.885,18.555 2.033,18.407C2.181,18.259 2.265,18.058 2.265,17.849ZM4.265,16.605L4.08,16.605C3.87,16.605 3.669,16.522 3.521,16.374C3.373,16.226 3.29,16.025 3.29,15.815L3.29,2.815C3.292,2.607 3.376,2.408 3.524,2.262C3.672,2.116 3.872,2.034 4.08,2.034L4.265,2.034C4.473,2.034 4.672,2.116 4.82,2.262C4.968,2.408 5.052,2.607 5.054,2.815L5.054,15.832C5.054,16.041 4.971,16.242 4.823,16.391C4.675,16.539 4.474,16.622 4.265,16.622L4.265,16.605ZM7.046,14.605L6.853,14.605C6.646,14.605 6.447,14.523 6.3,14.376C6.154,14.23 6.071,14.031 6.071,13.824L6.071,4.832C6.07,4.729 6.09,4.626 6.128,4.53C6.167,4.435 6.225,4.347 6.297,4.274C6.37,4.2 6.457,4.142 6.552,4.102C6.647,4.062 6.75,4.042 6.853,4.042L7.046,4.042C7.254,4.044 7.453,4.128 7.599,4.276C7.746,4.424 7.828,4.624 7.828,4.832L7.828,13.824C7.828,14.031 7.745,14.23 7.599,14.376C7.452,14.523 7.253,14.605 7.046,14.605ZM9.836,12.546L9.651,12.546C9.443,12.546 9.243,12.464 9.096,12.318C8.948,12.171 8.863,11.973 8.861,11.765L8.861,6.924C8.854,6.816 8.87,6.708 8.906,6.606C8.943,6.505 9,6.412 9.074,6.333C9.148,6.254 9.237,6.191 9.337,6.149C9.436,6.106 9.543,6.084 9.651,6.084L9.836,6.084C10.045,6.084 10.246,6.167 10.395,6.315C10.543,6.463 10.626,6.665 10.626,6.874L10.626,11.748C10.627,11.852 10.608,11.956 10.568,12.053C10.529,12.15 10.471,12.238 10.398,12.312C10.324,12.386 10.237,12.445 10.14,12.485C10.044,12.526 9.941,12.546 9.836,12.546ZM12.626,10.74L12.433,10.74C12.223,10.74 12.022,10.656 11.874,10.508C11.726,10.36 11.643,10.159 11.643,9.95L11.643,8.697C11.645,8.489 11.729,8.291 11.877,8.144C12.025,7.998 12.225,7.916 12.433,7.916L12.618,7.916C12.826,7.916 13.025,7.998 13.173,8.144C13.321,8.291 13.405,8.489 13.407,8.697L13.407,9.95C13.407,10.158 13.325,10.357 13.179,10.505C13.033,10.653 12.834,10.737 12.626,10.74Z" style="fill:rgb(17,15,15);fill-rule:nonzero;"/>
        <path d="M23.654,6.27L23.654,4.655L34.88,4.655L34.88,6.27L30.183,6.27L30.183,19.328L28.371,19.328L28.371,6.27L23.654,6.27ZM35.402,19.328L35.402,8.653L37.057,8.653L37.057,10.317L37.126,10.317C37.323,9.772 37.651,9.332 38.111,8.998C38.577,8.663 39.135,8.495 39.785,8.495C39.929,8.495 40.077,8.502 40.228,8.515C40.379,8.528 40.497,8.538 40.582,8.545L40.582,10.268C40.517,10.248 40.385,10.225 40.188,10.199C39.991,10.173 39.775,10.159 39.538,10.159C39.092,10.159 38.685,10.258 38.317,10.455C37.95,10.652 37.658,10.941 37.441,11.322C37.231,11.696 37.126,12.159 37.126,12.71L37.126,19.328L35.402,19.328ZM42.532,19.328L42.532,8.653L44.256,8.653L44.256,19.328L42.532,19.328ZM43.399,6.732C43.071,6.732 42.791,6.621 42.562,6.398C42.332,6.168 42.217,5.892 42.217,5.57C42.217,5.249 42.332,4.976 42.562,4.753C42.791,4.53 43.067,4.418 43.389,4.418C43.717,4.418 43.996,4.53 44.226,4.753C44.462,4.976 44.58,5.252 44.58,5.58C44.58,5.896 44.462,6.168 44.226,6.398C43.996,6.621 43.721,6.732 43.399,6.732ZM53.335,19.544C52.022,19.544 50.863,19.232 49.859,18.609C48.861,17.979 48.08,17.096 47.515,15.96C46.95,14.824 46.668,13.505 46.668,12.001C46.668,10.485 46.95,9.162 47.515,8.032C48.08,6.897 48.861,6.014 49.859,5.383C50.863,4.753 52.022,4.438 53.335,4.438C54.09,4.438 54.799,4.55 55.462,4.773C56.132,4.996 56.733,5.321 57.264,5.748C57.796,6.174 58.236,6.69 58.584,7.294C58.938,7.898 59.185,8.58 59.323,9.342L57.481,9.342C57.369,8.823 57.186,8.364 56.929,7.964C56.68,7.563 56.371,7.228 56.004,6.959C55.636,6.683 55.226,6.477 54.773,6.339C54.32,6.194 53.84,6.122 53.335,6.122C52.37,6.122 51.52,6.362 50.785,6.841C50.056,7.32 49.484,8 49.071,8.879C48.664,9.752 48.46,10.793 48.46,12.001C48.46,13.202 48.667,14.243 49.081,15.123C49.494,15.996 50.066,16.672 50.794,17.151C51.523,17.624 52.37,17.86 53.335,17.86C53.84,17.86 54.32,17.791 54.773,17.654C55.226,17.509 55.633,17.302 55.994,17.033C56.361,16.757 56.673,16.423 56.929,16.029C57.186,15.628 57.373,15.169 57.491,14.65L59.323,14.65C59.191,15.405 58.948,16.084 58.594,16.688C58.239,17.286 57.796,17.801 57.264,18.235C56.739,18.661 56.142,18.986 55.472,19.21C54.802,19.433 54.09,19.544 53.335,19.544L53.335,19.544ZM66.058,19.564C65.08,19.564 64.22,19.331 63.478,18.865C62.743,18.399 62.168,17.749 61.755,16.915C61.348,16.081 61.144,15.12 61.144,14.03C61.144,12.933 61.348,11.969 61.755,11.135C62.168,10.294 62.743,9.641 63.478,9.175C64.22,8.702 65.08,8.466 66.058,8.466C67.036,8.466 67.893,8.702 68.628,9.175C69.37,9.641 69.945,10.294 70.352,11.135C70.765,11.969 70.972,12.933 70.972,14.03C70.972,15.12 70.765,16.081 70.352,16.915C69.945,17.749 69.37,18.399 68.628,18.865C67.893,19.331 67.036,19.564 66.058,19.564ZM66.058,18.018C66.748,18.018 67.329,17.844 67.801,17.496C68.274,17.148 68.632,16.672 68.875,16.068C69.118,15.464 69.239,14.785 69.239,14.03C69.239,13.268 69.118,12.586 68.875,11.981C68.632,11.378 68.274,10.898 67.801,10.544C67.329,10.189 66.748,10.012 66.058,10.012C65.369,10.012 64.788,10.189 64.315,10.544C63.843,10.892 63.485,11.368 63.242,11.972C63.005,12.576 62.887,13.262 62.887,14.03C62.887,14.791 63.005,15.474 63.242,16.078C63.485,16.676 63.839,17.148 64.305,17.496C64.778,17.844 65.362,18.018 66.058,18.018ZM74.921,4.655L74.921,19.328L73.198,19.328L73.198,4.655L74.921,4.655ZM82.13,19.564C81.092,19.564 80.203,19.331 79.461,18.865C78.719,18.392 78.148,17.742 77.747,16.915C77.354,16.081 77.156,15.123 77.156,14.04C77.156,12.95 77.357,11.988 77.757,11.154C78.164,10.314 78.729,9.657 79.451,9.185C80.18,8.706 81.02,8.466 81.972,8.466C82.635,8.466 83.252,8.584 83.824,8.82C84.401,9.05 84.907,9.395 85.34,9.855C85.78,10.314 86.121,10.885 86.364,11.568C86.608,12.251 86.729,13.042 86.729,13.941L86.729,14.532L78.181,14.532L78.181,13.065L85.793,13.065L85.025,13.587C85.025,12.871 84.903,12.244 84.66,11.706C84.418,11.167 84.07,10.747 83.617,10.445C83.164,10.143 82.615,9.992 81.972,9.992C81.335,9.992 80.784,10.147 80.318,10.455C79.858,10.757 79.5,11.171 79.244,11.696C78.995,12.215 78.87,12.802 78.87,13.459L78.87,14.296C78.87,15.057 79.001,15.717 79.264,16.275C79.527,16.833 79.901,17.263 80.387,17.565C80.879,17.867 81.463,18.018 82.139,18.018C82.606,18.018 83.019,17.949 83.38,17.811C83.748,17.667 84.057,17.463 84.306,17.201C84.555,16.932 84.743,16.616 84.867,16.255L86.551,16.462C86.407,17.073 86.128,17.611 85.714,18.077C85.307,18.543 84.795,18.908 84.178,19.17C83.567,19.433 82.885,19.564 82.13,19.564ZM92.844,16.413L92.844,14.059L99.166,4.655L101.116,4.655L101.116,7.737L100.003,7.737L95.818,13.961L95.818,14.03L104.78,14.03L104.78,16.413L92.844,16.413ZM100.033,19.328L100.033,15.694L100.062,14.64L100.062,4.655L102.898,4.655L102.898,19.328L100.033,19.328ZM111.771,19.535C110.74,19.535 109.828,19.344 109.034,18.964C108.239,18.576 107.609,18.045 107.143,17.368C106.676,16.685 106.424,15.894 106.385,14.995L109.28,14.995C109.299,15.415 109.421,15.789 109.644,16.118C109.867,16.446 110.163,16.705 110.53,16.896C110.905,17.079 111.322,17.171 111.781,17.171C112.28,17.171 112.72,17.06 113.101,16.837C113.481,16.607 113.777,16.291 113.987,15.891C114.203,15.484 114.312,15.018 114.312,14.493C114.312,13.961 114.203,13.492 113.987,13.084C113.777,12.671 113.481,12.349 113.101,12.119C112.72,11.89 112.28,11.775 111.781,11.775C111.229,11.775 110.737,11.89 110.304,12.119C109.871,12.343 109.559,12.654 109.368,13.055L106.631,12.848L107.202,4.655L116.37,4.655L116.37,7.117L109.791,7.117L109.476,10.692L109.526,10.692C109.848,10.317 110.265,10.025 110.776,9.815C111.289,9.605 111.853,9.5 112.471,9.5C113.127,9.5 113.741,9.621 114.312,9.864C114.89,10.107 115.395,10.452 115.829,10.898C116.262,11.338 116.597,11.857 116.833,12.454C117.076,13.052 117.197,13.705 117.197,14.414C117.197,15.412 116.97,16.298 116.518,17.073C116.065,17.841 115.431,18.445 114.617,18.885C113.803,19.318 112.855,19.535 111.771,19.535Z" style="fill:rgb(17,15,15);fill-rule:nonzero;"/>
    </g>
</svg>
